    <svg width="300" height="470" xmlns="http://www.w3.org/2000/svg">
        <!-- Fondo -->
        <rect x="0" y="0" width="300" height="470" fill="white"></rect>
        
       <!-- Cuerpo -->
       <ellipse cx="150" cy="280" rx="70" ry="90" fill="black"></ellipse>
        <!-- Orejas -->
        <circle cx="80" cy="80" r="50" fill="Black" stroke-width="2"></circle>
        <circle cx="220" cy="80" r="50" fill="Black" stroke-width="2"></circle>
        
        <!-- Cabeza -->
        <circle cx="150" cy="150" r="80" fill="Black" stroke-width="2"></circle>
        
        <!-- Cara -->
        <ellipse cx="150" cy="160" rx="60" ry="70" fill="#FCCE9E"></ellipse>
        
        <!-- Ojos -->
        <ellipse cx="130" cy="140" rx="15" ry="25" fill="white"></ellipse>
        <ellipse cx="170" cy="140" rx="15" ry="25" fill="white"></ellipse>
        
        <!-- Pupilas -->
        <circle cx="130" cy="140" r="5" fill="black"></circle>
        <circle cx="170" cy="140" r="5" fill="black"></circle>
        
        <!-- Nariz -->
        <ellipse cx="150" cy="160" rx="15" ry="10" fill="black"></ellipse>
        
        <!-- Pantalones -->
        <ellipse cx="150" cy="320" rx="70" ry="50" fill="red"></ellipse>
        <circle cx="130" cy="300" r="10" fill="white"></circle>
        <circle cx="170" cy="300" r="10" fill="white"></circle>
        
        <!-- Piernas -->
        <rect x="110" y="365" width="20" height="50" fill="black"></rect>
        <rect x="170" y="365" width="20" height="50" fill="black"></rect>
        
        <!-- Zapatos -->
        <ellipse cx="110" cy="425" rx="30" ry="15" fill="yellow"></ellipse>
        <ellipse cx="190" cy="425" rx="30" ry="15" fill="yellow"></ellipse>
        
        <!-- Brazos -->
        <rect x="60" y="230" width="30" height="80" fill="black"></rect>
        <rect x="210" y="230" width="30" height="80" fill="black"></rect>
        
        <!-- Guantes -->
        <circle cx="50" cy="310" r="20" fill="white"></circle>
        <circle cx="250" cy="310" r="20" fill="white"></circle>
      <!-- Boca -->
      <path d="M120 190 Q150 220, 180 190" stroke="black" stroke-width="4" fill="none"></path>
        
      <!-- Lengua -->
      <path d="M135 200 Q150 215, 165 200" stroke="red" stroke-width="4" fill="none"></path>
    </svg>